<?xml version="1.0" encoding="UTF-8"?>
<svg width="1200" height="800" viewBox="0 0 1200 800" xmlns="http://www.w3.org/2000/svg">
  <defs>
    <style>
      @import url('https://fonts.googleapis.com/css2?family=Montserrat:wght@700&amp;family=Open+Sans:ital,wght@0,400;0,600;1,400&amp;display=swap');
      .title { font-family: 'Montserrat', sans-serif; font-weight: 700; font-size: 28px; fill: #D4735C; }
      .subtitle { font-family: 'Open Sans', sans-serif; font-size: 15px; fill: #666666; }
      .label { font-family: 'Open Sans', sans-serif; font-size: 14px; fill: #1A1A1A; }
      .label-bold { font-family: 'Open Sans', sans-serif; font-weight: 600; font-size: 16px; fill: #1A1A1A; }
      .big-text { font-family: 'Open Sans', sans-serif; font-weight: 600; font-size: 18px; fill: #D4735C; }
      .annotation { font-family: 'Open Sans', sans-serif; font-style: italic; font-size: 11px; fill: #666666; }
    </style>
  </defs>
  
  <!-- Fond blanc -->
  <rect width="1200" height="800" fill="#FFFFFF"/>
  
  <!-- Titre -->
  <text x="600" y="50" text-anchor="middle" class="title">Comment Faire Prendre un Dessert</text>
  <text x="600" y="75" text-anchor="middle" class="subtitle">La gélification : transformer un liquide en texture ferme</text>
  
  <!-- ÉTAPE 1 : Hydratation -->
  <g id="etape1">
    <rect x="60" y="120" width="340" height="580" rx="10" fill="#F5F5F5"/>
    
    <text x="230" y="155" text-anchor="middle" class="big-text">① HYDRATATION</text>
    <text x="230" y="180" text-anchor="middle" class="label-bold">Gonflement à froid</text>
    
    <!-- Poudre gélatine -->
    <circle cx="160" cy="240" r="35" fill="#FFECB3" stroke="#D4735C" stroke-width="3"/>
    <text x="160" y="250" text-anchor="middle" class="label" style="font-size: 20px;">📦</text>
    <text x="160" y="290" text-anchor="middle" class="label">Gélatine</text>
    <text x="160" y="308" text-anchor="middle" class="annotation">(poudre ou feuilles)</text>
    
    <text x="230" y="250" text-anchor="middle" class="label" style="font-size: 20px;">+</text>
    
    <!-- Eau froide -->
    <circle cx="300" cy="240" r="35" fill="#E3F2FD" stroke="#D4735C" stroke-width="3"/>
    <text x="300" y="250" text-anchor="middle" class="label" style="font-size: 20px;">💧</text>
    <text x="300" y="290" text-anchor="middle" class="label">Eau froide</text>
    
    <!-- Flèche -->
    <path d="M 230 340 L 230 385" stroke="#8B9B8E" stroke-width="3" fill="none"/>
    <polygon points="230,390 225,380 235,380" fill="#8B9B8E"/>
    
    <!-- Représentation gonflement -->
    <rect x="140" y="410" width="180" height="120" rx="8" fill="#E3F2FD" opacity="0.3" stroke="#8B9B8E" stroke-width="2"/>
    <circle cx="180" cy="450" r="15" fill="#FFECB3" opacity="0.6"/>
    <circle cx="230" cy="460" r="18" fill="#FFECB3" opacity="0.6"/>
    <circle cx="280" cy="455" r="16" fill="#FFECB3" opacity="0.6"/>
    <circle cx="200" cy="490" r="17" fill="#FFECB3" opacity="0.6"/>
    <circle cx="260" cy="495" r="15" fill="#FFECB3" opacity="0.6"/>
    
    <text x="230" y="560" text-anchor="middle" class="label">La gélatine absorbe</text>
    <text x="230" y="577" text-anchor="middle" class="label">l'eau et gonfle</text>
    
    <!-- Info scientifique -->
    <rect x="80" y="600" width="300" height="80" rx="5" fill="#FFF5E6"/>
    <text x="230" y="625" text-anchor="middle" class="annotation">Les protéines de la gélatine</text>
    <text x="230" y="640" text-anchor="middle" class="annotation">peuvent absorber jusqu'à 10 fois</text>
    <text x="230" y="655" text-anchor="middle" class="annotation">leur poids en eau. Temps de repos :</text>
    <text x="230" y="670" text-anchor="middle" class="annotation" style="font-weight: 600;">5-10 minutes minimum</text>
  </g>
  
  <!-- Flèche étape 1 -> 2 -->
  <path d="M 420 410 L 480 410" stroke="#D4735C" stroke-width="4" fill="none"/>
  <polygon points="485,410 475,405 475,415" fill="#D4735C"/>
  
  <!-- ÉTAPE 2 : Dispersion -->
  <g id="etape2">
    <rect x="500" y="120" width="340" height="580" rx="10" fill="#F5F5F5"/>
    
    <text x="670" y="155" text-anchor="middle" class="big-text">② DISPERSION</text>
    <text x="670" y="180" text-anchor="middle" class="label-bold">Dissolution par chauffage</text>
    
    <!-- Chaleur -->
    <circle cx="670" cy="240" r="40" fill="#FFE4B5" stroke="#D4735C" stroke-width="3"/>
    <text x="670" y="250" text-anchor="middle" style="font-size: 30px;">🔥</text>
    <text x="670" y="295" text-anchor="middle" class="label-bold" style="fill: #D4735C;">38-45°C</text>
    
    <!-- Flèche -->
    <path d="M 670 345 L 670 385" stroke="#8B9B8E" stroke-width="3" fill="none"/>
    <polygon points="670,390 665,380 675,380" fill="#8B9B8E"/>
    
    <!-- Protéines dépliées -->
    <rect x="580" y="410" width="180" height="120" rx="8" fill="#FFE4B5" opacity="0.3" stroke="#8B9B8E" stroke-width="2"/>
    
    <!-- Lignes ondulées représentant protéines -->
    <path d="M 600 440 Q 610 430, 620 440 T 640 440" stroke="#D4735C" stroke-width="3" fill="none"/>
    <path d="M 650 450 Q 660 440, 670 450 T 690 450" stroke="#D4735C" stroke-width="3" fill="none"/>
    <path d="M 700 460 Q 710 450, 720 460 T 740 460" stroke="#D4735C" stroke-width="3" fill="none"/>
    <path d="M 610 480 Q 620 470, 630 480 T 650 480" stroke="#D4735C" stroke-width="3" fill="none"/>
    <path d="M 660 490 Q 670 480, 680 490 T 700 490" stroke="#D4735C" stroke-width="3" fill="none"/>
    <path d="M 710 500 Q 720 490, 730 500 T 750 500" stroke="#D4735C" stroke-width="3" fill="none"/>
    
    <text x="670" y="560" text-anchor="middle" class="label">Les protéines se</text>
    <text x="670" y="577" text-anchor="middle" class="label">déploient dans le liquide</text>
    
    <!-- Info scientifique -->
    <rect x="520" y="600" width="300" height="80" rx="5" fill="#FFF5E6"/>
    <text x="670" y="625" text-anchor="middle" class="annotation">La chaleur dénoue les chaînes</text>
    <text x="670" y="640" text-anchor="middle" class="annotation">protéiques repliées. Ne pas bouillir !</text>
    <text x="670" y="655" text-anchor="middle" class="annotation">Au-delà de 80°C, la gélatine perd</text>
    <text x="670" y="670" text-anchor="middle" class="annotation" style="font-weight: 600;">son pouvoir gélifiant</text>
  </g>
  
  <!-- Flèche étape 2 -> 3 -->
  <path d="M 860 410 L 920 410" stroke="#D4735C" stroke-width="4" fill="none"/>
  <polygon points="925,410 915,405 915,415" fill="#D4735C"/>
  
  <!-- ÉTAPE 3 : Gélation -->
  <g id="etape3">
    <rect x="940" y="120" width="240" height="580" rx="10" fill="#F5F5F5"/>
    
    <text x="1060" y="155" text-anchor="middle" class="big-text">③ GÉLATION</text>
    <text x="1060" y="180" text-anchor="middle" class="label-bold">Prise au froid</text>
    
    <!-- Réfrigérateur -->
    <circle cx="1060" cy="240" r="40" fill="#E3F2FD" stroke="#D4735C" stroke-width="3"/>
    <text x="1060" y="250" text-anchor="middle" style="font-size: 30px;">❄️</text>
    <text x="1060" y="295" text-anchor="middle" class="label-bold" style="fill: #D4735C;">4-8°C</text>
    
    <!-- Flèche -->
    <path d="M 1060 345 L 1060 385" stroke="#8B9B8E" stroke-width="3" fill="none"/>
    <polygon points="1060,390 1055,380 1065,380" fill="#8B9B8E"/>
    
    <!-- Réseau 3D -->
    <rect x="970" y="410" width="180" height="120" rx="8" fill="#8B9B8E" opacity="0.15" stroke="#8B9B8E" stroke-width="2"/>
    
    <!-- Maillage protéique -->
    <line x1="990" y1="425" x2="1030" y2="425" stroke="#8B9B8E" stroke-width="2"/>
    <line x1="1030" y1="425" x2="1050" y2="445" stroke="#8B9B8E" stroke-width="2"/>
    <line x1="1030" y1="425" x2="1070" y2="440" stroke="#8B9B8E" stroke-width="2"/>
    <line x1="990" y1="425" x2="1010" y2="450" stroke="#8B9B8E" stroke-width="2"/>
    <line x1="1010" y1="450" x2="1050" y2="445" stroke="#8B9B8E" stroke-width="2"/>
    <line x1="1010" y1="450" x2="1030" y2="475" stroke="#8B9B8E" stroke-width="2"/>
    <line x1="1050" y1="445" x2="1090" y2="460" stroke="#8B9B8E" stroke-width="2"/>
    <line x1="1070" y1="440" x2="1110" y2="455" stroke="#8B9B8E" stroke-width="2"/>
    <line x1="1030" y1="475" x2="1070" y2="490" stroke="#8B9B8E" stroke-width="2"/>
    <line x1="1030" y1="475" x2="1010" y2="500" stroke="#8B9B8E" stroke-width="2"/>
    <line x1="1070" y1="490" x2="1110" y2="505" stroke="#8B9B8E" stroke-width="2"/>
    <line x1="1010" y1="500" x2="1050" y2="515" stroke="#8B9B8E" stroke-width="2"/>
    
    <!-- Gouttelettes eau piégées -->
    <circle cx="1020" cy="440" r="4" fill="#E3F2FD"/>
    <circle cx="1060" cy="460" r="4" fill="#E3F2FD"/>
    <circle cx="1045" cy="485" r="4" fill="#E3F2FD"/>
    <circle cx="1090" cy="475" r="4" fill="#E3F2FD"/>
    
    <text x="1060" y="560" text-anchor="middle" class="label">Formation d'un</text>
    <text x="1060" y="577" text-anchor="middle" class="label">réseau solide</text>
    
    <!-- Info scientifique -->
    <rect x="960" y="600" width="200" height="80" rx="5" fill="#FFF5E6"/>
    <text x="1060" y="620" text-anchor="middle" class="annotation">Les protéines forment</text>
    <text x="1060" y="635" text-anchor="middle" class="annotation">un maillage qui piège</text>
    <text x="1060" y="650" text-anchor="middle" class="annotation">l'eau. Temps de prise :</text>
    <text x="1060" y="665" text-anchor="middle" class="annotation" style="font-weight: 600;">2-4h au frigo</text>
  </g>
  
  <!-- Légende bas de page -->
  <rect x="60" y="730" width="1120" height="50" rx="5" fill="#FFF5E6" stroke="#D4735C" stroke-width="2"/>
  <text x="620" y="752" text-anchor="middle" class="label-bold">💡 Le saviez-vous ?</text>
  <text x="620" y="770" text-anchor="middle" class="annotation">2g de gélatine suffisent pour faire prendre 100ml de liquide. Certains fruits frais (ananas, kiwi) empêchent la prise car ils contiennent des enzymes qui cassent les protéines.</text>
  
</svg>