<?xml version="1.0" encoding="UTF-8"?>
<svg width="1000" height="700" viewBox="0 0 1000 700" xmlns="http://www.w3.org/2000/svg">
  <defs>
    <style>
      .title { font-family: 'Inter', sans-serif; font-size: 24px; font-weight: 700; fill: #1A1A1A; }
      .subtitle { font-family: 'Inter', sans-serif; font-size: 16px; font-weight: 600; fill: #1A1A1A; }
      .axis-label { font-family: 'Inter', sans-serif; font-size: 14px; fill: #1A1A1A; }
      .tick-label { font-family: 'Inter', sans-serif; font-size: 12px; fill: #666666; }
      .zone-label { font-family: 'Inter', sans-serif; font-size: 14px; font-weight: 600; }
      .annotation { font-family: 'Inter', sans-serif; font-size: 11px; fill: #1A1A1A; }
    </style>
    
    <!-- Dégradés pour zones -->
    <linearGradient id="grad-red" x1="0%" y1="0%" x2="0%" y2="100%">
      <stop offset="0%" style="stop-color:#DC3545;stop-opacity:0.2" />
      <stop offset="100%" style="stop-color:#DC3545;stop-opacity:0.4" />
    </linearGradient>
    
    <linearGradient id="grad-green" x1="0%" y1="0%" x2="0%" y2="100%">
      <stop offset="0%" style="stop-color:#28A745;stop-opacity:0.2" />
      <stop offset="100%" style="stop-color:#28A745;stop-opacity:0.4" />
    </linearGradient>
    
    <linearGradient id="grad-orange" x1="0%" y1="0%" x2="0%" y2="100%">
      <stop offset="0%" style="stop-color:#FFA500;stop-opacity:0.2" />
      <stop offset="100%" style="stop-color:#FFA500;stop-opacity:0.4" />
    </linearGradient>
  </defs>
  
  <!-- Fond -->
  <rect width="1000" height="700" fill="#FFFFFF"/>
  
  <!-- Grille légère de fond -->
  <g id="grille" opacity="0.15">
    <!-- Lignes horizontales -->
    <line x1="120" y1="150" x2="920" y2="150" stroke="#CCCCCC" stroke-width="1"/>
    <line x1="120" y1="230" x2="920" y2="230" stroke="#CCCCCC" stroke-width="1"/>
    <line x1="120" y1="310" x2="920" y2="310" stroke="#CCCCCC" stroke-width="1"/>
    <line x1="120" y1="390" x2="920" y2="390" stroke="#CCCCCC" stroke-width="1"/>
    <line x1="120" y1="470" x2="920" y2="470" stroke="#CCCCCC" stroke-width="1"/>
    <line x1="120" y1="550" x2="920" y2="550" stroke="#CCCCCC" stroke-width="1"/>
    
    <!-- Lignes verticales -->
    <line x1="220" y1="70" x2="220" y2="550" stroke="#CCCCCC" stroke-width="1"/>
    <line x1="320" y1="70" x2="320" y2="550" stroke="#CCCCCC" stroke-width="1"/>
    <line x1="420" y1="70" x2="420" y2="550" stroke="#CCCCCC" stroke-width="1"/>
    <line x1="520" y1="70" x2="520" y2="550" stroke="#CCCCCC" stroke-width="1"/>
    <line x1="620" y1="70" x2="620" y2="550" stroke="#CCCCCC" stroke-width="1"/>
    <line x1="720" y1="70" x2="720" y2="550" stroke="#CCCCCC" stroke-width="1"/>
    <line x1="820" y1="70" x2="820" y2="550" stroke="#CCCCCC" stroke-width="1"/>
  </g>
  
  <!-- Titre -->
  <text x="500" y="35" text-anchor="middle" class="title">EXTRACTION BOUILLON : TEMPÉRATURE ET TEMPS OPTIMAUX</text>
  
  <!-- Axes principaux -->
  <line x1="120" y1="70" x2="120" y2="550" stroke="#1A1A1A" stroke-width="2"/>
  <line x1="120" y1="550" x2="920" y2="550" stroke="#1A1A1A" stroke-width="2"/>
  
  <!-- ========== ZONES DE TEMPÉRATURE ========== -->
  
  <!-- Zone ROUGE : < 60°C (Extraction insuffisante) -->
  <rect x="120" y="470" width="800" height="80" fill="url(#grad-red)"/>
  <rect x="120" y="470" width="800" height="80" fill="none" stroke="#DC3545" stroke-width="2"/>
  <text x="520" y="505" text-anchor="middle" class="zone-label" fill="#DC3545">EXTRACTION INSUFFISANTE</text>
  <text x="520" y="525" text-anchor="middle" class="annotation" fill="#DC3545">Collagène non dénaturé - T &lt; 60°C</text>
  
  <!-- Zone VERTE : 85-95°C (Zone optimale) -->
  <rect x="120" y="150" width="800" height="160" fill="url(#grad-green)"/>
  <rect x="120" y="150" width="800" height="160" fill="none" stroke="#28A745" stroke-width="3"/>
  <text x="520" y="215" text-anchor="middle" class="zone-label" fill="#28A745" font-size="18px">⭐ ZONE OPTIMALE ⭐</text>
  <text x="520" y="240" text-anchor="middle" class="annotation" fill="#28A745">Extraction collagène maximale sans ébullition</text>
  <text x="520" y="260" text-anchor="middle" class="annotation" fill="#28A745" font-weight="600">T = 85-95°C pendant 3 heures</text>
  <text x="520" y="280" text-anchor="middle" class="annotation" fill="#28A745">Bouillon limpide • Arômes préservés • Gélatine optimale</text>
  
  <!-- Zone ORANGE : 95-100°C (Ébullition à éviter) -->
  <rect x="120" y="70" width="800" height="80" fill="url(#grad-orange)"/>
  <rect x="120" y="70" width="800" height="80" fill="none" stroke="#FFA500" stroke-width="2"/>
  <text x="520" y="105" text-anchor="middle" class="zone-label" fill="#FFA500">ÉBULLITION - À ÉVITER</text>
  <text x="520" y="125" text-anchor="middle" class="annotation" fill="#FFA500">Bouillon trouble • Arômes altérés • T = 95-100°C</text>
  
  <!-- Zone intermédiaire : 60-85°C -->
  <rect x="120" y="310" width="800" height="160" fill="#F5F5F5" opacity="0.5"/>
  <text x="520" y="385" text-anchor="middle" class="annotation" fill="#666666">Zone de transition : 60-85°C</text>
  <text x="520" y="405" text-anchor="middle" class="annotation" fill="#666666">Extraction progressive mais sous-optimale</text>
  
  <!-- ========== AXES ET GRADUATIONS ========== -->
  
  <!-- Axe Y : Température (0-100°C) -->
  <text x="60" y="310" text-anchor="middle" class="axis-label" transform="rotate(-90 60 310)">TEMPÉRATURE (°C)</text>
  
  <!-- Graduations Y -->
  <g id="graduations-y">
    <line x1="115" y1="550" x2="125" y2="550" stroke="#1A1A1A" stroke-width="2"/>
    <text x="100" y="555" text-anchor="end" class="tick-label">0</text>
    
    <line x1="115" y1="470" x2="125" y2="470" stroke="#1A1A1A" stroke-width="2"/>
    <text x="100" y="475" text-anchor="end" class="tick-label">20</text>
    
    <line x1="115" y1="390" x2="125" y2="390" stroke="#1A1A1A" stroke-width="2"/>
    <text x="100" y="395" text-anchor="end" class="tick-label" font-weight="600">40</text>
    
    <line x1="115" y1="310" x2="125" y2="310" stroke="#DC3545" stroke-width="3"/>
    <text x="100" y="315" text-anchor="end" class="tick-label" font-weight="700" fill="#DC3545">60</text>
    
    <line x1="115" y1="230" x2="125" y2="230" stroke="#1A1A1A" stroke-width="2"/>
    <text x="100" y="235" text-anchor="end" class="tick-label">80</text>
    
    <line x1="115" y1="150" x2="125" y2="150" stroke="#28A745" stroke-width="3"/>
    <text x="100" y="155" text-anchor="end" class="tick-label" font-weight="700" fill="#28A745">85-95</text>
    
    <line x1="115" y1="70" x2="125" y2="70" stroke="#FFA500" stroke-width="3"/>
    <text x="100" y="75" text-anchor="end" class="tick-label" font-weight="700" fill="#FFA500">100</text>
  </g>
  
  <!-- Axe X : Temps (0-4h) -->
  <text x="520" y="590" text-anchor="middle" class="axis-label">TEMPS D'EXTRACTION (heures)</text>
  
  <!-- Graduations X -->
  <g id="graduations-x">
    <line x1="120" y1="550" x2="120" y2="560" stroke="#1A1A1A" stroke-width="2"/>
    <text x="120" y="575" text-anchor="middle" class="tick-label">0</text>
    
    <line x1="220" y1="550" x2="220" y2="560" stroke="#1A1A1A" stroke-width="2"/>
    <text x="220" y="575" text-anchor="middle" class="tick-label">0.5</text>
    
    <line x1="320" y1="550" x2="320" y2="560" stroke="#1A1A1A" stroke-width="2"/>
    <text x="320" y="575" text-anchor="middle" class="tick-label">1</text>
    
    <line x1="420" y1="550" x2="420" y2="560" stroke="#1A1A1A" stroke-width="2"/>
    <text x="420" y="575" text-anchor="middle" class="tick-label" font-weight="600">1.5</text>
    
    <line x1="520" y1="550" x2="520" y2="560" stroke="#1A1A1A" stroke-width="2"/>
    <text x="520" y="575" text-anchor="middle" class="tick-label">2</text>
    
    <line x1="620" y1="550" x2="620" y2="560" stroke="#1A1A1A" stroke-width="2"/>
    <text x="620" y="575" text-anchor="middle" class="tick-label">2.5</text>
    
    <line x1="720" y1="550" x2="720" y2="560" stroke="#28A745" stroke-width="3"/>
    <text x="720" y="575" text-anchor="middle" class="tick-label" font-weight="700" fill="#28A745">3 ⭐</text>
    
    <line x1="820" y1="550" x2="820" y2="560" stroke="#1A1A1A" stroke-width="2"/>
    <text x="820" y="575" text-anchor="middle" class="tick-label">3.5</text>
    
    <line x1="920" y1="550" x2="920" y2="560" stroke="#1A1A1A" stroke-width="2"/>
    <text x="920" y="575" text-anchor="middle" class="tick-label">4</text>
  </g>
  
  <!-- ========== COURBE D'EXTRACTION COLLAGÈNE ========== -->
  <g id="courbe-extraction">
    <!-- Courbe progressive -->
    <path d="M 120 550 Q 320 400, 520 230 Q 620 200, 720 190 L 920 190" 
          fill="none" stroke="#D4735C" stroke-width="4" stroke-linecap="round"/>
    
    <!-- Points clés sur la courbe -->
    <!-- 50% extraction à 1.5h -->
    <circle cx="420" cy="320" r="6" fill="#D4735C"/>
    <text x="420" y="305" text-anchor="middle" class="annotation" font-weight="600" fill="#D4735C">50% extraction</text>
    <text x="420" y="340" text-anchor="middle" class="annotation" fill="#666666">(1.5h)</text>
    
    <!-- 90% extraction à 3h -->
    <circle cx="720" cy="190" r="8" fill="#28A745"/>
    <text x="720" y="175" text-anchor="middle" class="annotation" font-weight="700" fill="#28A745">90% extraction</text>
    <text x="720" y="210" text-anchor="middle" class="annotation" font-weight="600" fill="#28A745">(3h - OPTIMAL)</text>
    
    <!-- Plateau après 3h -->
    <line x1="720" y1="190" x2="920" y2="190" stroke="#D4735C" stroke-width="4" stroke-dasharray="8,4"/>
    <text x="820" y="175" text-anchor="middle" class="annotation" fill="#8B9B8E">Plateau (extraction maximale)</text>
  </g>
  
  <!-- ========== ICÔNES ET ANNOTATIONS ========== -->
  
  <!-- Icône casserole dans zone optimale -->
  <g id="icone-casserole">
    <circle cx="200" cy="230" r="30" fill="#FFFFFF" stroke="#28A745" stroke-width="3"/>
    <rect x="185" y="220" width="30" height="20" rx="3" fill="#8B9B8E"/>
    <line x1="205" y1="215" x2="205" y2="205" stroke="#1A1A1A" stroke-width="2"/>
    <!-- Vapeur -->
    <path d="M 195 205 Q 195 195, 200 195" fill="none" stroke="#28A745" stroke-width="2" opacity="0.6"/>
    <path d="M 205 205 Q 205 190, 210 190" fill="none" stroke="#28A745" stroke-width="2" opacity="0.6"/>
    <path d="M 215 205 Q 215 195, 220 195" fill="none" stroke="#28A745" stroke-width="2" opacity="0.6"/>
  </g>
  
  <!-- Thermomètre visuel -->
  <g id="thermometre">
    <rect x="850" y="350" width="20" height="120" rx="10" fill="#FFFFFF" stroke="#1A1A1A" stroke-width="2"/>
    <rect x="854" y="430" width="12" height="36" fill="#DC3545"/>
    <rect x="854" y="390" width="12" height="40" fill="#28A745"/>
    <rect x="854" y="354" width="12" height="36" fill="#FFA500"/>
    <circle cx="860" cy="472" r="12" fill="#DC3545" stroke="#1A1A1A" stroke-width="2"/>
  </g>
  
  <!-- Légende -->
  <g id="legende">
    <rect x="30" y="610" width="940" height="70" fill="#F5F5F5" rx="5"/>
    <text x="50" y="635" class="annotation" font-weight="600">📍 Points clés :</text>
    <text x="50" y="655" class="annotation">• 60°C : Seuil minimum dénaturation collagène</text>
    <text x="350" y="655" class="annotation">• 85-95°C : Zone optimale (3h)</text>
    <text x="600" y="655" class="annotation">• 95-100°C : Ébullition = bouillon trouble</text>
  </g>
  
  <!-- Pied de page -->
  <text x="500" y="695" text-anchor="middle" class="tick-label">Source : Projet Livre01 Science Culinaire - Diagramme extraction bouillon</text>
</svg>